# xmcd
#
# Track frame offsets: 
#        150
#        12504
#        23080
#        36293
#        48979
#        62702
#        73308
#        86519
#        99159
#        110852
#        122530
#        134254
#        143011
#        157693
#        167431
#        179381
#        191528
#        204455
#        215191
#        229082
#
# Disc length: 3220 seconds
#
# Revision: 0
# Processed by: cddbd v1.5.2PL0 Copyright (c) Steve Scherf et al.
# Submitted via: ExactAudioCopy v0.99pb5
#
DISCID=150c9214
DTITLE=Dean Martin  - Memories Are Made of This [Disc 2]
DYEAR=1900
DGENRE=
TTITLE0=Sway
TTITLE1=Mambo Italiano
TTITLE2=The Naughty Lady of Shady Lane
TTITLE3=Under the Bridges of Paris
TTITLE4=Money Burns a Hole in My Pocket
TTITLE5=Long Long Ago
TTITLE6=Two Sleepy People
TTITLE7=If
TTITLE8=I'll Always Love You
TTITLE9=Baby. Obey Me
TTITLE10=Don't Rock the Boat. Dear
TTITLE11=I Don't Care If the Sun Don't Shine
TTITLE12=Come Back to Sorrento
TTITLE13=You and Your Beautiful Eyes
TTITLE14=Three Wishes
TTITLE15=Rain
TTITLE16=All I Have to Give
TTITLE17=Have a Little Sympathy
TTITLE18=You Belong to Me
TTITLE19=Ma Come Bali
EXTD=
EXTT0=
EXTT1=
EXTT2=
EXTT3=
EXTT4=
EXTT5=
EXTT6=
EXTT7=
EXTT8=
EXTT9=
EXTT10=
EXTT11=
EXTT12=
EXTT13=
EXTT14=
EXTT15=
EXTT16=
EXTT17=
EXTT18=
EXTT19=
PLAYORDER=
